<svg width="277" height="114" viewBox="0 0 277 114" fill="none" xmlns="http://www.w3.org/2000/svg">
<path fill-rule="evenodd" clip-rule="evenodd" d="M139.007 0.10959C178.413 -0.183128 217.642 0.110472 256.706 0.991271C218.322 1.87207 179.765 2.16567 141.036 1.87295C139.161 3.84174 137.47 5.89871 135.963 8.04472C135.963 7.45664 135.963 6.86944 135.963 6.28136C136.64 4.51799 137.315 2.75463 137.992 0.991271C137.992 0.40319 138.33 0.10959 139.007 0.10959Z" fill="#0E2323"/>
<path fill-rule="evenodd" clip-rule="evenodd" d="M159.3 4.51758C185.004 4.51758 210.712 4.51758 236.413 4.51758C236.413 5.39926 236.413 6.28094 236.413 7.16262C231.675 7.16262 226.947 7.16262 222.208 7.16262C215.785 7.16262 209.353 7.16262 202.93 7.16262C198.871 7.16262 194.813 7.16262 190.754 7.16262C189.739 7.16262 188.725 7.16262 187.71 7.16262C183.651 7.16262 179.593 7.16262 175.534 7.16262C174.857 7.16262 174.182 7.16262 173.505 7.16262C168.571 6.88136 163.835 7.17496 159.3 8.0443C158.962 8.0443 158.623 8.0443 158.285 8.0443C154.432 7.17761 150.373 6.88313 146.109 7.16262C145.433 8.63238 144.757 10.1013 144.08 11.571C144.08 9.21958 144.08 6.86902 144.08 4.51758C149.153 4.51758 154.227 4.51758 159.3 4.51758Z" fill="#0F2128"/>
<path fill-rule="evenodd" clip-rule="evenodd" d="M173.505 7.16289C173.505 12.1594 173.505 17.155 173.505 22.1515C169.108 22.1515 164.711 22.1515 160.314 22.1515C159.312 17.6196 158.974 12.9167 159.299 8.04457C163.835 7.17523 168.57 6.88163 173.505 7.16289Z" fill="#284A5D"/>
<path fill-rule="evenodd" clip-rule="evenodd" d="M146.11 7.16289C150.373 6.8834 154.432 7.17788 158.285 8.04457C158.285 12.7466 158.285 17.4495 158.285 22.1515C154.227 22.1515 150.168 22.1515 146.11 22.1515C146.11 17.155 146.11 12.1594 146.11 7.16289Z" fill="#274B5B"/>
<path fill-rule="evenodd" clip-rule="evenodd" d="M222.209 7.16309C226.947 7.16309 231.676 7.16309 236.414 7.16309C237.419 12.2857 237.753 17.5757 237.429 23.0333C232.355 23.0333 227.282 23.0333 222.209 23.0333C222.209 17.7433 222.209 12.4532 222.209 7.16309Z" fill="#274B5C"/>
<path fill-rule="evenodd" clip-rule="evenodd" d="M256.707 0.991211C257.042 0.991211 257.387 0.991211 257.722 0.991211C257.387 22.3032 257.722 43.4635 258.737 64.4722C258.737 70.3504 258.737 76.2277 258.737 82.1058C257.722 82.1058 256.707 82.1058 255.693 82.1058C255.693 83.5756 255.693 85.0445 255.693 86.5142C253.998 86.5142 252.314 86.5142 250.619 86.5142C216.294 85.6343 181.797 85.3398 147.125 85.6326C147.125 85.339 147.125 85.0445 147.125 84.7509C160.315 84.7509 173.506 84.7509 186.696 84.7509C187.034 84.7509 187.373 84.7509 187.711 84.7509C188.388 84.7509 189.064 84.7509 189.74 84.7509C190.078 84.7509 190.417 84.7509 190.755 84.7509C194.814 84.7509 198.872 84.7509 202.931 84.7509C203.611 84.7509 204.28 84.7509 204.96 84.7509C210.368 84.7509 215.786 84.7509 221.195 84.7509C221.195 81.8122 221.195 78.8727 221.195 75.9341C221.874 78.8727 222.544 81.8122 223.224 84.7509C227.617 84.7509 232.021 84.7509 236.414 84.7509C236.749 84.7509 237.094 84.7509 237.429 84.7509C237.764 84.7509 238.109 84.7509 238.444 84.7509C242.837 84.7509 247.241 84.7509 251.634 84.7509C252.649 84.7509 253.663 84.7509 254.678 84.7509C255.053 58.8709 254.546 33.0077 253.156 7.16298C248.336 6.45322 243.436 6.01238 238.444 5.84046C237.896 5.20829 237.216 4.76745 236.414 4.51793C210.713 4.51793 185.005 4.51793 159.301 4.51793C153.746 3.64595 147.996 3.35235 142.052 3.63625C141.714 3.04817 141.375 2.46097 141.037 1.87289C179.766 2.16561 218.323 1.87201 256.707 0.991211Z" fill="#152A2F"/>
<path fill-rule="evenodd" clip-rule="evenodd" d="M50.7344 21.2698C76.6029 20.3899 102.645 20.0963 128.863 20.3881C129.189 25.553 128.851 30.5495 127.848 35.3767C128.016 31.8377 127.847 28.3109 127.341 24.7966C126.263 27.0263 125.418 29.3778 124.804 31.85C124.127 28.3233 123.451 24.7966 122.775 21.2698C122.098 25.6782 121.422 30.0866 120.745 34.495C120.044 30.1898 119.368 25.9286 118.716 21.7107C102.482 21.1226 86.2472 21.1226 70.0127 21.7107C67.5573 21.9664 65.1891 22.4072 62.9102 23.0332C63.0431 22.2608 62.7052 21.6728 61.8955 21.2698C60.886 25.9357 60.5481 30.6377 60.8809 35.3767C57.8897 35.6209 55.0152 35.3273 52.2564 34.495C52.0798 29.9244 51.5725 25.516 50.7344 21.2698Z" fill="#22393C"/>
<path fill-rule="evenodd" clip-rule="evenodd" d="M237.429 23.915C237.429 26.5601 237.429 29.2051 237.429 31.8502C232.355 31.8502 227.282 31.8502 222.209 31.8502C222.209 29.2051 222.209 26.5601 222.209 23.915C227.282 23.915 232.355 23.915 237.429 23.915Z" fill="#325869"/>
<path fill-rule="evenodd" clip-rule="evenodd" d="M173.504 7.16309C174.181 7.16309 174.856 7.16309 175.533 7.16309C174.567 12.0785 174.228 17.0741 174.519 22.1517C178.915 22.1517 183.313 22.1517 187.709 22.1517C187.709 17.1552 187.709 12.1596 187.709 7.16309C188.724 7.16309 189.738 7.16309 190.753 7.16309C190.753 12.1596 190.753 17.1552 190.753 22.1517C194.812 22.1517 198.87 22.1517 202.929 22.1517C202.929 17.1552 202.929 12.1596 202.929 7.16309C209.352 7.16309 215.784 7.16309 222.207 7.16309C222.207 12.4532 222.207 17.7433 222.207 23.0333C227.28 23.0333 232.354 23.0333 237.427 23.0333C237.427 23.3269 237.427 23.6214 237.427 23.915C232.354 23.915 227.28 23.915 222.207 23.915C222.207 26.5601 222.207 29.2051 222.207 31.8501C227.28 31.8501 232.354 31.8501 237.427 31.8501C237.427 49.4838 237.427 67.1174 237.427 84.751C237.092 84.751 236.747 84.751 236.412 84.751C236.412 67.411 236.412 50.0718 236.412 32.7318C232.019 32.7318 227.615 32.7318 223.222 32.7318C223.222 50.0718 223.222 67.411 223.222 84.751C222.542 81.8123 221.872 78.8728 221.193 75.9342C221.193 61.5337 221.193 47.1323 221.193 32.7318C215.784 32.7318 210.366 32.7318 204.958 32.7318C204.958 50.0718 204.958 67.411 204.958 84.751C204.278 84.751 203.609 84.751 202.929 84.751C202.929 67.411 202.929 50.0718 202.929 32.7318C202.929 32.1437 202.929 31.5565 202.929 30.9685C202.929 28.617 202.929 26.2665 202.929 23.915C198.87 23.915 194.812 23.915 190.753 23.915C185.342 23.915 179.93 23.915 174.519 23.915C174.204 26.7479 174.542 29.3929 175.533 31.8501C174.544 48.5615 174.206 65.3135 174.519 82.1059C174.458 82.5847 174.12 82.8783 173.504 82.9876C172.489 66.5399 172.151 50.0824 172.489 33.6135C168.431 33.6135 164.372 33.6135 160.313 33.6135C160.648 49.9317 160.31 66.0955 159.299 82.1059C159.299 65.354 159.299 48.6021 159.299 31.8501C164.034 31.8501 168.769 31.8501 173.504 31.8501C173.504 29.2051 173.504 26.5601 173.504 23.915C168.769 23.915 164.034 23.915 159.299 23.915C159.637 23.3269 159.976 22.7397 160.313 22.1517C164.71 22.1517 169.107 22.1517 173.504 22.1517C173.504 17.1552 173.504 12.1596 173.504 7.16309Z" fill="#183547"/>
<path fill-rule="evenodd" clip-rule="evenodd" d="M204.961 23.915C210.369 23.915 215.787 23.915 221.195 23.915C221.195 26.5601 221.195 29.2051 221.195 31.8502C215.787 31.8502 210.369 31.8502 204.961 31.8502C204.961 29.2051 204.961 26.5601 204.961 23.915Z" fill="#325A6A"/>
<path fill-rule="evenodd" clip-rule="evenodd" d="M190.754 23.915C194.813 23.915 198.871 23.915 202.93 23.915C202.93 26.2665 202.93 28.617 202.93 30.9685C198.871 30.9685 194.813 30.9685 190.754 30.9685C190.754 28.617 190.754 26.2665 190.754 23.915Z" fill="#315B69"/>
<path fill-rule="evenodd" clip-rule="evenodd" d="M204.961 8.04443C210.034 8.04443 215.107 8.04443 220.181 8.04443C220.181 12.7464 220.181 17.4493 220.181 22.1513C215.107 22.1513 210.034 22.1513 204.961 22.1513C204.961 17.4493 204.961 12.7464 204.961 8.04443Z" fill="#274B5D"/>
<path fill-rule="evenodd" clip-rule="evenodd" d="M190.754 7.16309C194.813 7.16309 198.871 7.16309 202.93 7.16309C202.93 12.1596 202.93 17.1552 202.93 22.1517C198.871 22.1517 194.813 22.1517 190.754 22.1517C190.754 17.1552 190.754 12.1596 190.754 7.16309Z" fill="#294C5B"/>
<path fill-rule="evenodd" clip-rule="evenodd" d="M175.535 7.16309C179.594 7.16309 183.652 7.16309 187.711 7.16309C187.711 12.1596 187.711 17.1552 187.711 22.1517C183.314 22.1517 178.917 22.1517 174.52 22.1517C174.23 17.0741 174.569 12.0785 175.535 7.16309Z" fill="#284B5D"/>
<path fill-rule="evenodd" clip-rule="evenodd" d="M159.299 23.9148C164.034 23.9148 168.769 23.9148 173.504 23.9148C173.504 26.5598 173.504 29.2049 173.504 31.8499C168.769 31.8499 164.034 31.8499 159.299 31.8499C159.299 29.2049 159.299 26.5598 159.299 23.9148Z" fill="#31596B"/>
<path fill-rule="evenodd" clip-rule="evenodd" d="M221.195 75.934C221.195 78.8727 221.195 81.8122 221.195 84.7509C215.787 84.7509 210.369 84.7509 204.961 84.7509C204.961 67.4108 204.961 50.0717 204.961 32.7317C210.369 32.7317 215.787 32.7317 221.195 32.7317C221.195 47.1322 221.195 61.5336 221.195 75.934Z" fill="#294D5F"/>
<path fill-rule="evenodd" clip-rule="evenodd" d="M236.413 84.7509C232.02 84.7509 227.616 84.7509 223.223 84.7509C223.223 67.4108 223.223 50.0717 223.223 32.7317C227.616 32.7317 232.02 32.7317 236.413 32.7317C236.413 50.0717 236.413 67.4108 236.413 84.7509Z" fill="#294F5F"/>
<path fill-rule="evenodd" clip-rule="evenodd" d="M236.414 4.51758C237.216 4.76709 237.895 5.20793 238.443 5.8401C243.435 6.01203 248.336 6.45287 253.156 7.16262C254.546 33.0073 255.053 58.8705 254.678 84.7505C253.663 84.7505 252.648 84.7505 251.634 84.7505C251.634 83.2808 251.634 81.8119 251.634 80.3421C252.983 56.2431 252.983 32.1433 251.634 8.0443C247.443 7.17585 243.04 6.88225 238.443 7.16262C238.119 12.6202 238.454 17.9103 239.458 23.0329C239.123 23.621 238.778 24.2082 238.443 24.7962C238.129 27.3399 238.474 29.6913 239.458 31.8497C239.458 32.4378 239.458 33.025 239.458 33.613C238.443 50.5052 238.109 67.5516 238.443 84.7505C238.109 84.7505 237.764 84.7505 237.429 84.7505C237.429 67.1169 237.429 49.4833 237.429 31.8497C237.429 29.2046 237.429 26.5596 237.429 23.9146C237.429 23.621 237.429 23.3265 237.429 23.0329C237.753 17.5753 237.419 12.2852 236.414 7.16262C236.414 6.28094 236.414 5.39926 236.414 4.51758Z" fill="#0C222E"/>
<path fill-rule="evenodd" clip-rule="evenodd" d="M238.443 24.7966C242.836 24.7966 247.24 24.7966 251.633 24.7966C251.633 27.1481 251.633 29.4986 251.633 31.8501C247.575 31.8501 243.516 31.8501 239.458 31.8501C238.473 29.6917 238.128 27.3403 238.443 24.7966Z" fill="#335B6C"/>
<path fill-rule="evenodd" clip-rule="evenodd" d="M251.632 8.04493C251.632 13.0414 251.632 18.037 251.632 23.0335C247.574 23.0335 243.515 23.0335 239.457 23.0335C238.452 17.9109 238.117 12.6209 238.442 7.16325C243.038 6.88288 247.442 7.17648 251.632 8.04493Z" fill="#284C5D"/>
<path fill-rule="evenodd" clip-rule="evenodd" d="M158.286 32.7317C157.951 49.3434 158.289 65.8009 159.301 82.1058C160.312 66.0954 160.65 49.9315 160.315 33.6134C164.374 33.6134 168.433 33.6134 172.491 33.6134C172.153 50.0823 172.491 66.5397 173.506 82.9875C174.122 82.8782 174.46 82.5846 174.521 82.1058C175.532 66.389 175.87 50.5187 175.535 34.4951C178.294 34.4042 180.999 34.6987 183.652 35.3767C184.816 35.0964 185.662 34.5092 186.189 33.6134C186.696 50.6563 186.866 67.7027 186.696 84.7509C173.506 84.7509 160.315 84.7509 147.125 84.7509C147.125 67.4108 147.125 50.0717 147.125 32.7317C150.846 32.7317 154.565 32.7317 158.286 32.7317Z" fill="#294E5E"/>
<path fill-rule="evenodd" clip-rule="evenodd" d="M239.458 33.6134C243.517 33.6134 247.576 33.6134 251.634 33.6134C251.634 49.1901 251.634 64.7658 251.634 80.3425C251.634 81.8122 251.634 83.2811 251.634 84.7509C247.241 84.7509 242.837 84.7509 238.444 84.7509C238.109 67.5519 238.444 50.5055 239.458 33.6134Z" fill="#284E5C"/>
<path fill-rule="evenodd" clip-rule="evenodd" d="M251.632 8.04492C252.981 32.1439 252.981 56.2438 251.632 80.3427C251.632 64.7661 251.632 49.1903 251.632 33.6137C247.573 33.6137 243.515 33.6137 239.456 33.6137C239.456 33.0256 239.456 32.4384 239.456 31.8503C243.515 31.8503 247.573 31.8503 251.632 31.8503C251.632 29.4989 251.632 27.1483 251.632 24.7969C247.238 24.7969 242.835 24.7969 238.441 24.7969C238.776 24.2088 239.121 23.6216 239.456 23.0335C243.515 23.0335 247.573 23.0335 251.632 23.0335C251.632 18.037 251.632 13.0414 251.632 8.04492Z" fill="#163140"/>
<path fill-rule="evenodd" clip-rule="evenodd" d="M190.752 23.9149C190.752 26.2664 190.752 28.6169 190.752 30.9684C194.811 30.9684 198.869 30.9684 202.928 30.9684C202.928 31.5564 202.928 32.1436 202.928 32.7317C198.971 33.5517 194.912 33.8453 190.752 33.6134C190.752 50.6589 190.752 67.7054 190.752 84.7509C190.414 84.7509 190.075 84.7509 189.738 84.7509C189.061 14.2164 188.385 14.2164 187.708 84.7509C187.37 84.7509 187.032 84.7509 186.694 84.7509C186.863 67.7027 186.694 50.6563 186.186 33.6134C185.66 34.5092 184.813 35.0964 183.65 35.3768C180.996 34.6988 178.291 34.4043 175.532 34.4951C175.867 50.5188 175.529 66.389 174.518 82.1059C174.205 65.3134 174.543 48.5614 175.532 31.85C174.541 29.3928 174.203 26.7478 174.518 23.9149C179.929 23.9149 185.341 23.9149 190.752 23.9149Z" fill="#224353"/>
<path fill-rule="evenodd" clip-rule="evenodd" d="M175.533 31.8501C175.533 29.4986 175.533 27.1481 175.533 24.7966C179.254 24.7966 182.974 24.7966 186.694 24.7966C186.694 27.1481 186.694 29.4986 186.694 31.8501C182.974 31.8501 179.254 31.8501 175.533 31.8501Z" fill="#325E6C"/>
<path fill-rule="evenodd" clip-rule="evenodd" d="M202.93 32.7319C202.93 50.0719 202.93 67.4111 202.93 84.7511C198.871 84.7511 194.813 84.7511 190.754 84.7511C190.754 67.7056 190.754 50.6591 190.754 33.6136C194.914 33.8455 198.973 33.5519 202.93 32.7319Z" fill="#2A4E5D"/>
<path fill-rule="evenodd" clip-rule="evenodd" d="M47.6895 61.8273C47.9969 69.2237 47.659 76.5708 46.6748 83.8693C48.9507 84.7281 51.3178 85.0226 53.7774 84.751C57.836 84.751 61.8946 84.751 65.9532 84.751C53.958 85.6283 41.7822 85.9219 29.4257 85.6327C27.8033 85.869 26.4508 85.5745 25.3671 84.751C26.0439 84.751 26.7197 84.751 27.3964 84.751C33.1465 84.751 38.8955 84.751 44.6455 84.751C45.4897 68.1498 45.997 51.3979 46.1675 34.4952C46.5054 34.2016 46.8442 33.9071 47.1821 33.6135C47.6895 43.0131 47.8589 52.418 47.6895 61.8273Z" fill="#0F1F2B"/>
<path fill-rule="evenodd" clip-rule="evenodd" d="M141.035 1.87305C141.373 2.46113 141.712 3.04833 142.05 3.63641C141.712 30.093 142.05 56.5434 143.064 82.9877C144.079 59.1894 144.417 35.384 144.079 11.5715C144.756 10.1018 145.432 8.63289 146.108 7.16313C146.108 12.1596 146.108 17.1552 146.108 22.1517C150.167 22.1517 154.226 22.1517 158.284 22.1517C158.284 17.4497 158.284 12.7468 158.284 8.04481C158.622 8.04481 158.961 8.04481 159.299 8.04481C158.973 12.917 159.311 17.6199 160.314 22.1517C159.976 22.7398 159.637 23.327 159.299 23.9151C159.299 26.5601 159.299 29.2052 159.299 31.8502C159.299 48.6021 159.299 65.3541 159.299 82.106C158.287 65.8011 157.949 49.3436 158.284 32.7319C158.284 32.4383 158.284 32.1438 158.284 31.8502C158.284 28.9116 158.284 25.972 158.284 23.0334C154.357 22.7557 150.636 23.0493 147.123 23.9151C145.771 44.1937 145.771 64.4724 147.123 84.751C147.123 85.0446 147.123 85.3391 147.123 85.6327C142.189 85.914 137.453 85.6204 132.918 84.751C134.947 84.751 136.977 84.751 139.006 84.751C139.175 60.0622 139.006 35.3752 138.499 10.6899C137.822 9.51458 137.146 9.51458 136.469 10.6899C135.979 9.85402 135.811 8.97234 135.962 8.04481C137.469 5.8988 139.16 3.84184 141.035 1.87305Z" fill="#0F202D"/>
<path fill-rule="evenodd" clip-rule="evenodd" d="M158.286 31.8502C154.565 31.8502 150.846 31.8502 147.125 31.8502C147.125 29.2051 147.125 26.5601 147.125 23.9151C150.638 23.0492 154.358 22.7556 158.286 23.0334C158.286 25.972 158.286 28.9115 158.286 31.8502Z" fill="#2F5866"/>
<path fill-rule="evenodd" clip-rule="evenodd" d="M50.7307 21.27C50.6404 33.1921 51.655 44.9484 53.7746 56.5372C54.7812 60.9527 52.7519 62.7161 47.6867 61.8273C47.8562 52.418 47.6867 43.0131 47.1794 33.6136C46.8415 33.9071 46.5026 34.2016 46.1647 34.4952C45.9943 51.3979 45.487 68.1499 44.6428 84.751C44.6428 77.1095 44.6428 69.4689 44.6428 61.8273C44.6428 52.7169 44.6428 43.6056 44.6428 34.4952C39.2316 34.4952 33.8195 34.4952 28.4083 34.4952C28.4083 37.4339 28.4083 40.3734 28.4083 43.312C27.9984 48.3173 28.6752 53.1666 30.4377 57.8598C29.0232 58.7027 28.3465 59.8779 28.4083 61.3865C29.007 65.332 29.3449 69.2996 29.423 73.2892C29.4118 76.8732 28.7351 80.1063 27.3937 82.9877C27.2243 66.5267 27.3937 50.0692 27.901 33.6136C33.7261 32.7539 39.6456 32.4603 45.6574 32.7319C46.6721 32.7319 47.6867 32.7319 48.7014 32.7319C48.9753 28.7396 49.6521 24.9193 50.7307 21.27Z" fill="#233E45"/>
<path fill-rule="evenodd" clip-rule="evenodd" d="M44.6407 61.8272C43.973 62.619 43.2973 63.5006 42.6114 64.4723C41.9346 59.0464 41.2588 53.7563 40.5821 48.602C37.7542 47.7406 34.7103 47.447 31.4502 47.7203C29.9942 46.4745 28.9795 45.0048 28.4062 43.3119C28.4062 40.3733 28.4062 37.4338 28.4062 34.4951C33.8174 34.4951 39.2295 34.4951 44.6407 34.4951C44.6407 43.6055 44.6407 52.7168 44.6407 61.8272Z" fill="#284F56"/>
<path fill-rule="evenodd" clip-rule="evenodd" d="M31.4548 47.7203C34.7149 47.447 37.7589 47.7406 40.5867 48.602C40.5867 57.1252 40.5867 65.6475 40.5867 74.1707C37.5884 74.7517 34.5444 75.0453 31.4548 75.0524C31.4548 65.942 31.4548 56.8307 31.4548 47.7203Z" fill="#19313F"/>
<path fill-rule="evenodd" clip-rule="evenodd" d="M189.738 84.7509C189.062 84.7509 188.386 84.7509 187.709 84.7509C188.386 14.2165 189.062 14.2165 189.738 84.7509Z" fill="#153243"/>
<path fill-rule="evenodd" clip-rule="evenodd" d="M135.961 6.28125C135.961 6.86933 135.961 7.45653 135.961 8.04461C135.81 8.97214 135.979 9.85382 136.469 10.6897C137.145 9.51437 137.821 9.51437 138.498 10.6897C139.005 35.375 139.175 60.062 139.005 84.7508C136.976 84.7508 134.947 84.7508 132.917 84.7508C132.917 81.8122 132.917 78.8727 132.917 75.934C125.477 75.934 118.035 75.934 110.595 75.934C99.4339 75.934 88.2727 75.934 77.1115 75.934C69.3322 75.934 61.5539 75.934 53.7746 75.934C53.7746 78.8727 53.7746 81.8122 53.7746 84.7508C51.315 85.0224 48.9479 84.7279 46.672 83.8692C47.6562 76.5706 47.9941 69.2236 47.6866 61.8271C52.7518 62.7159 54.7811 60.9525 53.7746 56.5371C51.655 44.9482 50.6403 33.1919 50.7306 21.2698C51.5687 25.516 52.076 29.9244 52.2526 34.495C55.0114 35.3273 57.8859 35.6209 60.8771 35.3767C60.5443 30.6377 60.8822 25.9357 61.8918 21.2698C62.7015 21.6728 63.0393 22.2608 62.9064 23.0332C62.9064 27.148 62.9064 31.2619 62.9064 35.3767C62.9064 35.6703 62.9064 35.9648 62.9064 36.2584C59.3836 35.9586 56.6775 36.2522 54.7892 37.1401C54.7892 37.4337 54.7892 37.7282 54.7892 38.0218C54.1185 39.4624 53.7806 41.0785 53.7746 42.871C53.8222 44.8945 54.498 46.5115 55.8039 47.7202C55.8039 48.6019 55.8039 49.4836 55.8039 50.3653C55.4822 54.0701 55.8211 57.5968 56.8185 60.9455C76.0969 60.9455 95.3753 60.9455 114.654 60.9455C120.065 60.9455 125.477 60.9455 130.888 60.9455C131.21 57.2406 130.871 53.7139 129.873 50.3653C129.873 50.0717 129.873 49.7772 129.873 49.4836C131.041 44.943 131.21 40.2401 130.381 35.3767C126.937 36.2196 123.386 36.5132 119.727 36.2584C119.727 35.9648 119.727 35.6703 119.727 35.3767C122.433 35.3767 125.138 35.3767 127.844 35.3767C128.848 30.5495 129.185 25.553 128.859 20.3881C129.536 20.3881 129.873 20.0945 129.873 19.5065C131.51 14.942 133.539 10.5336 135.961 6.28125Z" fill="#162A35"/>
<path fill-rule="evenodd" clip-rule="evenodd" d="M55.805 50.3654C80.5584 50.4394 105.248 50.4394 129.875 50.3654C130.872 53.714 131.211 57.2407 130.889 60.9455C125.478 60.9455 120.066 60.9455 114.655 60.9455C114.96 58.4618 116.313 57.8738 118.713 59.1822C119.712 56.6006 120.05 53.9556 119.728 51.247C102.479 51.247 85.2299 51.247 67.9808 51.247C67.9808 53.8921 67.9808 56.5371 67.9808 59.1822C65.2747 59.1822 62.5697 59.1822 59.8636 59.1822C59.2294 56.1227 60.2441 53.624 62.9076 51.6879C60.9056 51.2514 58.8763 51.1042 56.8196 51.247C56.8196 54.4802 56.8196 57.7124 56.8196 60.9455C55.8222 57.5969 55.4834 54.0702 55.805 50.3654Z" fill="#2D4750"/>
<path fill-rule="evenodd" clip-rule="evenodd" d="M114.655 60.9456C95.3771 60.9456 76.0987 60.9456 56.8203 60.9456C56.8203 57.7125 56.8203 54.4802 56.8203 51.2471C58.877 51.1043 60.9063 51.2515 62.9082 51.6879C60.2448 53.6241 59.2301 56.1228 59.8643 59.1822C62.5703 59.1822 65.2754 59.1822 67.9815 59.1822C67.9815 56.5372 67.9815 53.8921 67.9815 51.2471C85.2305 51.2471 102.48 51.2471 119.729 51.2471C120.05 53.9556 119.712 56.6007 118.714 59.1822C116.313 57.8738 114.961 58.4619 114.655 60.9456Z" fill="#304F5A"/>
<path fill-rule="evenodd" clip-rule="evenodd" d="M54.7911 38.0217C54.7911 37.7281 54.7911 37.4336 54.7911 37.14C60.5411 37.14 66.2902 37.14 72.0402 37.14C72.0402 40.6667 72.0402 44.1935 72.0402 47.7202C85.5685 47.7202 99.0979 47.7202 112.626 47.7202C112.626 44.1935 112.626 40.6667 112.626 37.14C118.037 37.14 123.45 37.14 128.861 37.14C129.182 40.8448 128.843 44.3716 127.846 47.7202C128.184 48.6019 128.861 49.1899 129.875 49.4835C129.875 49.7771 129.875 50.0716 129.875 50.3652C105.249 50.4393 80.5592 50.4393 55.8058 50.3652C55.8058 49.4835 55.8058 48.6019 55.8058 47.7202C60.5411 47.7202 65.2755 47.7202 70.0109 47.7202C70.0109 44.4871 70.0109 41.2548 70.0109 38.0217C64.9376 38.0217 59.8644 38.0217 54.7911 38.0217Z" fill="#1E3640"/>
<path fill-rule="evenodd" clip-rule="evenodd" d="M127.847 47.7203C124.126 47.7203 120.406 47.7203 116.686 47.7203C116.686 44.4872 116.686 41.255 116.686 38.0219C120.406 38.0219 124.126 38.0219 127.847 38.0219C127.847 41.255 127.847 44.4872 127.847 47.7203Z" fill="#304B55"/>
<path fill-rule="evenodd" clip-rule="evenodd" d="M72.0391 37.1401C85.5674 37.1401 99.0968 37.1401 112.625 37.1401C112.625 40.6669 112.625 44.1936 112.625 47.7203C99.0968 47.7203 85.5674 47.7203 72.0391 47.7203C72.0391 44.1936 72.0391 40.6669 72.0391 37.1401Z" fill="#3D636F"/>
<path fill-rule="evenodd" clip-rule="evenodd" d="M54.79 38.0217C59.8633 38.0217 64.9366 38.0217 70.0098 38.0217C70.0098 41.2549 70.0098 44.4871 70.0098 47.7202C65.2744 47.7202 60.5401 47.7202 55.8047 47.7202C54.4988 46.5114 53.8231 44.8944 53.7754 42.871C53.7815 41.0785 54.1194 39.4624 54.79 38.0217Z" fill="#304F58"/>
<path fill-rule="evenodd" clip-rule="evenodd" d="M129.875 49.4836C128.861 49.19 128.184 48.6019 127.846 47.7202C128.843 44.3716 129.182 40.8449 128.861 37.1401C123.45 37.1401 118.037 37.1401 112.626 37.1401C99.0979 37.1401 85.5685 37.1401 72.0402 37.1401C66.2902 37.1401 60.5411 37.1401 54.7911 37.1401C56.6794 36.2522 59.3854 35.9586 62.9083 36.2584C81.8488 36.2584 100.788 36.2584 119.729 36.2584C123.388 36.5132 126.939 36.2196 130.383 35.3767C131.212 40.2401 131.043 44.9429 129.875 49.4836Z" fill="#0A1927"/>
<path fill-rule="evenodd" clip-rule="evenodd" d="M119.729 35.3768C119.729 35.6704 119.729 35.9649 119.729 36.2585C100.788 36.2585 81.8486 36.2585 62.9081 36.2585C62.9081 35.9649 62.9081 35.6704 62.9081 35.3768C67.9925 35.5232 73.0658 35.376 78.1279 34.936C79.3171 34.5666 80.3317 33.9794 81.1718 33.1726C79.2227 32.8552 77.5313 32.1199 76.0986 30.9684C88.2561 30.0876 100.432 29.794 112.626 30.0868C113.018 33.6611 115.386 35.4245 119.729 35.3768Z" fill="#29404B"/>
<path fill-rule="evenodd" clip-rule="evenodd" d="M127.846 35.3768C125.14 35.3768 122.435 35.3768 119.729 35.3768C115.386 35.4244 113.018 33.661 112.626 30.0867C100.432 29.794 88.2561 30.0876 76.0986 30.9684C77.5313 32.1198 79.2227 32.8552 81.1718 33.1726C80.3317 33.9793 79.3171 34.5665 78.1279 34.9359C73.0658 35.3759 67.9925 35.5231 62.9081 35.3768C62.9081 31.262 62.9081 27.148 62.9081 23.0332C65.187 22.4072 67.5552 21.9664 70.0107 21.7107C86.2451 21.1226 102.48 21.1226 118.714 21.7107C119.366 25.9287 120.042 30.1898 120.743 34.4951C121.42 30.0867 122.096 25.6783 122.773 21.2699C123.449 24.7966 124.125 28.3233 124.802 31.85C125.416 29.3778 126.261 27.0264 127.338 24.7966C127.845 28.311 128.014 31.8377 127.846 35.3768Z" fill="#324C52"/>
<path fill-rule="evenodd" clip-rule="evenodd" d="M75.082 25.6784C87.614 25.3857 100.129 25.6793 112.624 26.5601C106.367 26.8537 100.11 27.1482 93.8531 27.4418C87.2193 27.4383 80.9619 26.8511 75.082 25.6784Z" fill="#14242D"/>
<path fill-rule="evenodd" clip-rule="evenodd" d="M142.051 3.63628C147.995 3.35238 153.745 3.64598 159.3 4.51796C154.227 4.51796 149.153 4.51796 144.08 4.51796C144.08 6.8694 144.08 9.21996 144.08 11.5714C144.418 35.3838 144.08 59.1892 143.065 82.9875C142.051 56.5433 141.713 30.0929 142.051 3.63628Z" fill="#1A2B38"/>
<path fill-rule="evenodd" clip-rule="evenodd" d="M49.7168 62.709C61.2158 62.709 72.7159 62.709 84.2149 62.709C84.2149 66.5293 84.2149 70.3505 84.2149 74.1708C72.6844 74.3851 61.1844 74.0915 49.7168 73.2892C49.7168 69.7624 49.7168 66.2357 49.7168 62.709Z" fill="#364F5B"/>
<path fill-rule="evenodd" clip-rule="evenodd" d="M109.582 62.709C116.008 62.709 122.435 62.709 128.861 62.709C128.861 66.5293 128.861 70.3505 128.861 74.1708C122.435 74.1708 116.008 74.1708 109.582 74.1708C109.582 70.3505 109.582 66.5293 109.582 62.709Z" fill="#354F5A"/>
<path fill-rule="evenodd" clip-rule="evenodd" d="M16.2334 62.7088C15.3294 62.171 14.3147 61.8774 13.1895 61.8272C12.5127 69.4687 11.8369 77.1093 11.1602 84.7508C11.1602 78.5791 11.1602 72.4073 11.1602 66.2356C11.1602 65.6475 11.1602 65.0603 11.1602 64.4722C11.1602 63.2969 11.1602 62.1208 11.1602 60.9455C13.4746 60.5725 15.166 61.1606 16.2334 62.7088Z" fill="#294536"/>
<path fill-rule="evenodd" clip-rule="evenodd" d="M30.4414 31.8501C35.7125 31.5671 40.7858 31.8616 45.6612 32.7318C39.6494 32.4603 33.7299 32.7539 27.9048 33.6135C27.3975 50.0692 27.228 66.5266 27.3975 82.9876C27.3975 83.5757 27.3975 84.1629 27.3975 84.751C26.7207 84.751 26.0449 84.751 25.3682 84.751C25.6979 78.4144 25.359 72.2426 24.3535 66.2357C25.1794 55.1336 25.6868 43.9662 25.8755 32.7318C27.2514 31.9559 28.7733 31.6615 30.4414 31.8501Z" fill="#173B39"/>
<path fill-rule="evenodd" clip-rule="evenodd" d="M147.124 23.9149C147.124 26.56 147.124 29.205 147.124 31.85C150.845 31.85 154.564 31.85 158.285 31.85C158.285 32.1436 158.285 32.4381 158.285 32.7317C154.564 32.7317 150.845 32.7317 147.124 32.7317C147.124 50.0717 147.124 67.4109 147.124 84.7509C145.771 64.4722 145.771 44.1936 147.124 23.9149Z" fill="#1C3341"/>
<path fill-rule="evenodd" clip-rule="evenodd" d="M85.2303 62.709C93.0097 62.709 100.788 62.709 108.567 62.709C108.567 66.5293 108.567 70.3505 108.567 74.1708C100.788 74.1708 93.0097 74.1708 85.2303 74.1708C85.2303 70.3505 85.2303 66.5293 85.2303 62.709Z" fill="#3B5F67"/>
<path fill-rule="evenodd" clip-rule="evenodd" d="M28.4089 43.3118C28.9822 45.0046 29.9969 46.4744 31.4529 47.7202C31.4529 56.8306 31.4529 65.9419 31.4529 75.0523C34.5425 75.0452 37.5865 74.7516 40.5848 74.1706C40.5848 65.6474 40.5848 57.1251 40.5848 48.6019C41.2615 53.7562 41.9373 59.0462 42.6141 64.4721C43.3 63.5005 43.9757 62.6188 44.6434 61.8271C44.6434 69.4686 44.6434 77.1092 44.6434 84.7508C38.8933 84.7508 33.1443 84.7508 27.3943 84.7508C27.3943 84.1627 27.3943 83.5755 27.3943 82.9874C28.7357 80.1061 29.4124 76.873 29.4236 73.2889C29.3455 69.2993 29.0076 65.3318 28.4089 61.3862C28.347 59.8777 29.0238 58.7024 30.4382 57.8595C28.6758 53.1663 27.999 48.3171 28.4089 43.3118Z" fill="#2A4B57"/>
<path fill-rule="evenodd" clip-rule="evenodd" d="M77.1113 75.9341C88.2725 75.9341 99.4337 75.9341 110.595 75.9341C110.595 78.8727 110.595 81.8122 110.595 84.7509C98.7569 84.7509 86.92 84.7509 75.082 84.7509C76.7065 82.0318 77.3833 79.0931 77.1113 75.9341Z" fill="#304F56"/>
<path fill-rule="evenodd" clip-rule="evenodd" d="M110.596 75.9341C118.036 75.9341 125.478 75.9341 132.918 75.9341C132.918 78.8727 132.918 81.8122 132.918 84.7509C125.478 84.7509 118.036 84.7509 110.596 84.7509C110.596 81.8122 110.596 78.8727 110.596 75.9341Z" fill="#29414B"/>
<path fill-rule="evenodd" clip-rule="evenodd" d="M13.1914 61.8271C14.3167 61.8774 15.3313 62.171 16.2354 62.7088C16.2354 63.2969 16.2354 63.8841 16.2354 64.4722C16.6849 72.5025 16.1775 80.4377 14.7134 88.2776C13.3284 79.511 12.8211 70.6942 13.1914 61.8271Z" fill="#08140C"/>
<path fill-rule="evenodd" clip-rule="evenodd" d="M77.1124 75.9341C77.3843 79.0931 76.7075 82.0318 75.0831 84.7509C72.0391 84.7509 68.9952 84.7509 65.9512 84.7509C61.8926 84.7509 57.834 84.7509 53.7754 84.7509C53.7754 81.8122 53.7754 78.8727 53.7754 75.9341C61.5547 75.9341 69.333 75.9341 77.1124 75.9341Z" fill="#2A414B"/>
<path fill-rule="evenodd" clip-rule="evenodd" d="M261.779 60.0638C262.794 60.0638 263.808 60.0638 264.823 60.0638C264.539 61.7523 264.874 63.2211 265.838 64.4722C265.533 66.7285 265.868 68.7863 266.852 70.644C267.045 75.4606 267.725 80.1626 268.882 84.7509C270.282 89.6592 271.296 94.6557 271.926 99.7395C270.363 99.5605 269.003 98.9724 267.867 97.9761C267.177 98.2962 266.497 98.5898 265.838 98.8578C266.152 96.3141 265.807 93.9627 264.823 91.8044C264.823 90.041 264.823 88.2776 264.823 86.5143C263.473 86.5143 262.114 86.5143 260.764 86.5143C260.764 79.1672 260.764 71.8193 260.764 64.4722C260.632 62.8923 260.967 61.4234 261.779 60.0638Z" fill="#132220"/>
<path fill-rule="evenodd" clip-rule="evenodd" d="M258.737 64.4722C259.417 64.4722 260.087 64.4722 260.767 64.4722C260.767 71.8192 260.767 79.1671 260.767 86.5142C262.116 86.5142 263.476 86.5142 264.825 86.5142C264.825 88.2775 264.825 90.0409 264.825 91.8043C263.861 90.5532 263.526 89.0843 263.811 87.3959C261.101 87.1023 258.402 86.8078 255.693 86.5142C255.693 85.0444 255.693 83.5755 255.693 82.1058C256.708 82.1058 257.723 82.1058 258.737 82.1058C258.737 76.2276 258.737 70.3503 258.737 64.4722Z" fill="#263C3B"/>
<path fill-rule="evenodd" clip-rule="evenodd" d="M65.9532 84.751C68.9972 84.751 72.0411 84.751 75.0851 84.751C86.923 84.751 98.7599 84.751 110.598 84.751C118.038 84.751 125.48 84.751 132.92 84.751C137.456 85.6203 142.191 85.9139 147.125 85.6327C181.797 85.3399 216.294 85.6344 250.62 86.5143C217.136 86.5143 183.653 86.5143 150.169 86.5143C110.922 85.9315 72.0259 86.5196 33.4844 88.2777C31.8386 87.7293 30.4861 86.8476 29.4258 85.6327C41.7822 85.9218 53.958 85.6282 65.9532 84.751Z" fill="#1C3332"/>
<path fill-rule="evenodd" clip-rule="evenodd" d="M17.25 84.751C19.9561 84.751 22.6611 84.751 25.3672 84.751C26.4509 85.5745 27.8034 85.8689 29.4258 85.6327C30.4861 86.8476 31.8387 87.7293 33.4844 88.2777C70.6643 87.4366 107.868 87.1421 145.096 87.396C149.45 88.2715 153.846 88.8596 158.287 89.1594C158.432 91.4491 159.278 93.5069 160.823 95.3311C161.161 94.1559 161.5 92.9797 161.838 91.8044C162.345 92.8333 163.19 93.5678 164.374 94.0086C169.182 94.5297 173.917 95.265 178.58 96.2128C178.58 97.0945 178.58 97.9762 178.58 98.8579C168.587 98.5696 158.78 98.8632 149.155 99.7395C105.187 99.7395 61.2179 99.7395 17.25 99.7395C17.25 94.7431 17.25 89.7475 17.25 84.751Z" fill="#425C4A"/>
<path fill-rule="evenodd" clip-rule="evenodd" d="M150.167 86.5142C153.53 86.9048 156.743 87.7865 159.807 89.1592C160.658 88.1682 161.842 87.5802 163.358 87.3959C169.054 87.7054 174.635 87.7054 180.1 87.3959C199.581 87.8552 219.032 88.7369 238.442 90.0409C238.442 92.0979 238.442 94.1557 238.442 96.2127C236.94 95.9817 235.591 96.2753 234.383 97.0944C234.921 97.7045 235.591 98.1453 236.413 98.4169C234.83 98.602 233.48 99.0429 232.354 99.7394C204.624 99.7394 176.886 99.7394 149.153 99.7394C158.778 98.863 168.585 98.5694 178.578 98.8577C178.578 97.9761 178.578 97.0944 178.578 96.2127C173.915 95.2649 169.18 94.5296 164.372 94.0085C163.188 93.5677 162.343 92.8332 161.836 91.8043C161.498 92.9796 161.159 94.1557 160.821 95.331C159.276 93.5068 158.43 91.449 158.285 89.1592C153.844 88.8595 149.448 88.2714 145.094 87.3959C107.866 87.142 70.6624 87.4364 33.4825 88.2776C72.024 86.5195 110.92 85.9314 150.167 86.5142Z" fill="#3C5547"/>
<path fill-rule="evenodd" clip-rule="evenodd" d="M150.166 86.5142C183.65 86.5142 217.133 86.5142 250.616 86.5142C252.311 86.5142 253.995 86.5142 255.69 86.5142C258.399 86.8078 261.098 87.1022 263.807 87.3958C263.523 89.0843 263.858 90.5531 264.822 91.8042C265.806 93.9626 266.151 96.314 265.836 98.8577C265.491 99.5965 264.811 99.891 263.807 99.7394C253.326 99.7394 242.834 99.7394 232.353 99.7394C233.479 99.0428 234.829 98.602 236.411 98.4169C235.59 98.1453 234.92 97.7045 234.382 97.0943C235.59 96.2752 236.939 95.9816 238.441 96.2126C238.441 94.1557 238.441 92.0978 238.441 90.0409C219.03 88.7369 199.58 87.8552 180.098 87.3958C174.633 87.7053 169.053 87.7053 163.356 87.3958C161.841 87.5801 160.656 88.1682 159.805 89.1592C156.742 87.7864 153.529 86.9047 150.166 86.5142Z" fill="#334D45"/>
<path fill-rule="evenodd" clip-rule="evenodd" d="M17.2481 109.438C20.4189 110.301 23.8007 110.595 27.3946 110.319C24.0128 110.908 20.6299 111.495 17.2481 112.083C15.6835 112.789 13.9931 113.083 12.1748 112.965C12.1748 112.671 12.1748 112.376 12.1748 112.083C8.64689 111.357 4.92617 110.916 1.01367 110.76C4.37927 110.321 7.7611 110.174 11.1602 110.319C11.1602 106.793 11.1602 103.266 11.1602 99.7393C11.9912 97.2662 12.4985 94.6212 12.6822 91.8042C13.6968 91.8042 14.7115 91.8042 15.7261 91.8042C16.4973 95.0885 16.3278 98.3216 15.2188 101.503C15.8164 104.271 16.4932 106.916 17.2481 109.438Z" fill="#0D1814"/>
<path fill-rule="evenodd" clip-rule="evenodd" d="M3.04395 84.751C5.75003 84.751 8.45509 84.751 11.1612 84.751C11.1612 89.7475 11.1612 94.7431 11.1612 99.7396C7.44044 100.915 3.72073 100.915 0 99.7396C0 94.7431 0 89.7475 0 84.751C1.01465 84.751 2.0293 84.751 3.04395 84.751Z" fill="#3B5744"/>
<path fill-rule="evenodd" clip-rule="evenodd" d="M13.1895 61.8274C12.8191 70.6945 13.3264 79.5113 14.7114 88.2778C16.1756 80.4379 16.6829 72.5028 16.2334 64.4724C17.0837 64.774 17.4226 65.3612 17.2481 66.2358C17.2481 72.4076 17.2481 78.5793 17.2481 84.7511C17.2481 89.7476 17.2481 94.7432 17.2481 99.7397C61.2159 99.7397 105.185 99.7397 149.153 99.7397C176.886 99.7397 204.624 99.7397 232.354 99.7397C242.835 99.7397 253.327 99.7397 263.808 99.7397C257.72 100.328 251.632 100.915 245.545 101.503C190.753 101.503 135.962 101.503 81.1711 101.503C59.8634 101.503 38.5557 101.503 17.2481 101.503C17.2481 104.148 17.2481 106.793 17.2481 109.438C16.4932 106.917 15.8164 104.272 15.2188 101.503C16.3278 98.3219 16.4972 95.0888 15.7261 91.8045C14.7114 91.8045 13.6968 91.8045 12.6821 91.8045C12.4985 94.6215 11.9912 97.2666 11.1602 99.7397C11.1602 94.7432 11.1602 89.7476 11.1602 84.7511C11.8369 77.1096 12.5127 69.4689 13.1895 61.8274Z" fill="#192D27"/>
<path fill-rule="evenodd" clip-rule="evenodd" d="M81.1718 101.503C135.963 101.503 190.754 101.503 245.545 101.503C265.95 99.9485 266.965 102.594 248.589 109.438C235.419 110.319 222.229 110.612 209.018 110.32C217.967 109.444 227.099 109.15 236.413 109.438C236.413 108.556 236.413 107.675 236.413 106.793C238.138 106.934 239.833 106.788 241.487 106.352C240.523 105.926 239.508 105.78 238.443 105.911C238.443 105.03 238.443 104.148 238.443 103.266C237.103 103.116 235.916 103.41 234.892 104.148C216.993 102.308 199.064 102.014 181.115 103.266C147.701 102.682 114.387 102.094 81.1718 101.503Z" fill="#1C2E31"/>
<path fill-rule="evenodd" clip-rule="evenodd" d="M81.173 101.503C114.389 102.094 147.703 102.682 181.116 103.266C199.065 102.014 216.994 102.308 234.893 104.148C235.917 103.41 237.105 103.116 238.444 103.266C238.444 104.148 238.444 105.03 238.444 105.911C239.509 105.78 240.524 105.926 241.488 106.352C239.834 106.788 238.14 106.934 236.415 106.793C236.415 107.675 236.415 108.556 236.415 109.438C227.1 109.15 217.968 109.444 209.019 110.32C148.478 110.32 87.9377 110.32 27.3965 110.32C23.8026 110.596 20.4208 110.301 17.25 109.438C17.25 106.793 17.25 104.148 17.25 101.503C38.5577 101.503 59.8654 101.503 81.173 101.503Z" fill="#223637"/>
<path fill-rule="evenodd" clip-rule="evenodd" d="M0 99.7394C3.72073 100.915 7.44044 100.915 11.1612 99.7394C11.1612 103.266 11.1612 106.793 11.1612 110.32C7.76208 110.174 4.38025 110.321 1.01465 110.76C4.92715 110.916 8.64787 111.357 12.1758 112.083C8.11721 112.083 4.05861 112.083 0 112.083C0 107.968 0 103.854 0 99.7394Z" fill="#22372D"/>
<path fill-rule="evenodd" clip-rule="evenodd" d="M275.987 102.385C269.331 106.306 262.229 109.539 254.68 112.083C256.009 111.23 256.679 110.054 256.709 108.556C258.83 108.717 260.859 108.422 262.797 107.675C264.025 105.98 265.374 104.364 266.856 102.825C269.879 102.386 272.923 102.239 275.987 102.385Z" fill="#112125"/>
<path fill-rule="evenodd" clip-rule="evenodd" d="M271.927 99.7397C273.399 100.447 275.093 100.888 277.001 101.062C276.433 101.4 276.098 101.841 275.986 102.385C272.922 102.239 269.878 102.386 266.854 102.826C265.373 104.364 264.023 105.98 262.796 107.675C260.858 108.422 258.828 108.717 256.708 108.556C256.677 110.054 256.008 111.231 254.678 112.083C253.552 112.133 252.537 112.427 251.634 112.965C249.382 113.731 247.018 114.025 244.532 113.847C244.532 113.553 244.532 113.258 244.532 112.965C204.118 112.084 163.532 111.79 122.774 112.083C87.5988 112.083 52.4249 112.083 17.25 112.083C20.6318 111.495 24.0147 110.908 27.3965 110.32C87.9377 110.32 148.478 110.32 209.019 110.32C222.23 110.613 235.42 110.319 248.59 109.438C266.966 102.594 265.951 99.9486 245.547 101.503C251.634 100.915 257.722 100.328 263.81 99.7397C264.815 99.8913 265.495 99.5968 265.84 98.858C266.499 98.59 267.179 98.2964 267.869 97.9763C269.005 98.9726 270.365 99.5607 271.927 99.7397Z" fill="#112125"/>
</svg>
