<svg width="273" height="281" viewBox="0 0 273 281" fill="none" xmlns="http://www.w3.org/2000/svg">
<path d="M271.554 33.1722L273 33L221.003 18.5312C217.367 17.5195 213.573 17.2098 209.818 17.5803C207.499 17.809 205.428 18 205 18C204.2 18 194 17.3333 189 17H184.5C182.843 17 181.5 18.3431 181.5 20V73.5L183.704 103.037C183.901 105.668 183.749 108.312 183.254 110.903L177.931 138.748C177.644 140.246 177.5 141.768 177.5 143.293C177.5 156.662 166.662 167.5 153.293 167.5H144H98.2695C96.7587 167.5 95.2524 167.385 93.7582 167.162C85.5719 165.935 72.0496 164 69.5 164C66.9314 164 52.6653 165.964 44.1489 167.189C42.7149 167.395 41.2728 167.5 39.824 167.5H30C13.4315 167.5 0 180.931 0 197.5V210.5V218.742C0 225.337 2.48894 231.688 6.96923 236.527C10.5713 240.417 15.2698 243.122 20.4429 244.283L28.5104 246.094C34.0559 247.339 39.1336 250.134 43.1525 254.152L46.8196 257.82C50.541 261.541 55.1759 264.218 60.2589 265.582L68.709 267.849C71.5542 268.612 74.2714 269.79 76.7732 271.345L88.8374 278.845C90.5573 279.914 92.5989 280.343 94.6036 280.057C98.8476 279.45 102 275.816 102 271.529V270.727C102 270.243 101.963 269.76 101.89 269.282L98.0258 244.063C95.164 225.386 110.073 208.746 128.951 209.546L172.407 211.39C174.132 211.463 175.861 211.387 177.574 211.163L210.165 206.895C214.663 206.306 218.969 204.705 222.759 202.211L223.849 201.494C231.522 196.446 236.46 188.16 237.249 179.008L240.75 138.395C240.916 136.469 240.896 134.533 240.689 132.611L236.646 95.011C236.22 91.0435 236.589 87.0309 237.732 83.2079L246.358 54.3661C249.783 42.9122 259.682 34.5854 271.554 33.1722Z" fill="#1E2422"/>
<path d="M271.554 33.1722L273 33L221.003 18.5312C217.367 17.5195 213.573 17.2098 209.818 17.5803C207.499 17.809 205.428 18 205 18C204.2 18 194 17.3333 189 17H184.5C182.843 17 181.5 18.3431 181.5 20V73.5L183.704 103.037C183.901 105.668 183.749 108.312 183.254 110.903L177.931 138.748C177.644 140.246 177.5 141.768 177.5 143.293C177.5 156.662 166.662 167.5 153.293 167.5H144H98.2695C96.7587 167.5 95.2524 167.385 93.7582 167.162C85.5719 165.935 72.0496 164 69.5 164C66.9314 164 52.6653 165.964 44.1489 167.189C42.7149 167.395 41.2728 167.5 39.824 167.5H30C13.4315 167.5 0 180.931 0 197.5V210.5V218.742C0 225.337 2.48894 231.688 6.96923 236.527C10.5713 240.417 15.2698 243.122 20.4429 244.283L28.5104 246.094C34.0559 247.339 39.1336 250.134 43.1525 254.152L46.8196 257.82C50.541 261.541 55.1759 264.218 60.2589 265.582L68.709 267.849C71.5542 268.612 74.2714 269.79 76.7732 271.345L88.8374 278.845C90.5573 279.914 92.5989 280.343 94.6036 280.057C98.8476 279.45 102 275.816 102 271.529V270.727C102 270.243 101.963 269.76 101.89 269.282L98.0258 244.063C95.164 225.386 110.073 208.746 128.951 209.546L172.407 211.39C174.132 211.463 175.861 211.387 177.574 211.163L210.165 206.895C214.663 206.306 218.969 204.705 222.759 202.211L223.849 201.494C231.522 196.446 236.46 188.16 237.249 179.008L240.75 138.395C240.916 136.469 240.896 134.533 240.689 132.611L236.646 95.011C236.22 91.0435 236.589 87.0309 237.732 83.2079L246.358 54.3661C249.783 42.9122 259.682 34.5854 271.554 33.1722Z" fill="url(#paint0_linear_1073_5028)" fill-opacity="0.6"/>
<g filter="url(#filter0_f_1073_5028)">
<path d="M225 21.5L207.5 24V58V105C207.5 114.833 207.5 134.9 207.5 136.5C207.5 138.1 201.833 160.833 199 172C192.333 176.833 178.2 186.6 175 187C171.8 187.4 114 187.167 85.5 187H52.5V234" stroke="black" stroke-width="2"/>
</g>
<g filter="url(#filter1_f_1073_5028)">
<path d="M239.5 35L222 37.5V71.5V118.5C222 128.333 222 148.4 222 150C222 151.6 216.333 174.333 213.5 185.5C206.833 190.333 192.7 200.1 189.5 200.5C186.3 200.9 128.5 200.667 100 200.5H67V247.5" stroke="black" stroke-width="2"/>
</g>
<g filter="url(#filter2_f_1073_5028)">
<path d="M203.5 19L186 21.5V55.5V102.5C186 112.333 186 132.4 186 134C186 135.6 180.333 158.333 177.5 169.5C170.833 174.333 156.7 184.1 153.5 184.5C150.3 184.9 95 181.667 66.5 181.5L48 179L31 184.5V231.5" stroke="black" stroke-width="2"/>
</g>
<defs>
<filter id="filter0_f_1073_5028" x="31.5" y="0.51001" width="213.642" height="253.49" filterUnits="userSpaceOnUse" color-interpolation-filters="sRGB">
<feFlood flood-opacity="0" result="BackgroundImageFix"/>
<feBlend mode="normal" in="SourceGraphic" in2="BackgroundImageFix" result="shape"/>
<feGaussianBlur stdDeviation="10" result="effect1_foregroundBlur_1073_5028"/>
</filter>
<filter id="filter1_f_1073_5028" x="46" y="14.01" width="213.642" height="253.49" filterUnits="userSpaceOnUse" color-interpolation-filters="sRGB">
<feFlood flood-opacity="0" result="BackgroundImageFix"/>
<feBlend mode="normal" in="SourceGraphic" in2="BackgroundImageFix" result="shape"/>
<feGaussianBlur stdDeviation="10" result="effect1_foregroundBlur_1073_5028"/>
</filter>
<filter id="filter2_f_1073_5028" x="15" y="3.01001" width="203.642" height="243.49" filterUnits="userSpaceOnUse" color-interpolation-filters="sRGB">
<feFlood flood-opacity="0" result="BackgroundImageFix"/>
<feBlend mode="normal" in="SourceGraphic" in2="BackgroundImageFix" result="shape"/>
<feGaussianBlur stdDeviation="7.5" result="effect1_foregroundBlur_1073_5028"/>
</filter>
<linearGradient id="paint0_linear_1073_5028" x1="240" y1="102.5" x2="67.5" y2="171.5" gradientUnits="userSpaceOnUse">
<stop/>
<stop offset="1" stop-opacity="0"/>
</linearGradient>
</defs>
</svg>
