<svg xmlns="http://www.w3.org/2000/svg" xmlns:xlink="http://www.w3.org/1999/xlink" viewBox="0 0 62.5 8"><defs><style>.cls-1{opacity:0.3;}.cls-2{fill:#666;}.cls-3{fill:gray;}.cls-4{fill:#ccc;}.cls-5{fill:#b3b3b3;}.cls-6{fill:none;}.cls-7{fill:url(#Безымянный_градиент_19);}</style><linearGradient id="Безымянный_градиент_19" x1="21.12" x2="21.12" y2="6.4" gradientUnits="userSpaceOnUse"><stop offset="0" stop-color="gray"/><stop offset="0.1" stop-color="#a4a4a4"/><stop offset="0.23" stop-color="#d4d4d4"/><stop offset="0.3" stop-color="#e6e6e6"/><stop offset="0.35" stop-color="#d9d9d9"/><stop offset="0.49" stop-color="#b0b0b0"/><stop offset="0.63" stop-color="#909090"/><stop offset="0.76" stop-color="#797979"/><stop offset="0.89" stop-color="#6b6b6b"/><stop offset="1" stop-color="#666"/></linearGradient></defs><g id="Слой_2" data-name="Слой 2"><g id="Main"><g id="Pen"><ellipse class="cls-1" cx="31.52" cy="5.33" rx="30.93" ry="2.67"/><path class="cls-2" d="M61.06,1.32l-2.34-.25V5.33l2.34-.25a1.73,1.73,0,0,0,1.39-1.7V3A1.73,1.73,0,0,0,61.06,1.32Z"/><path class="cls-3" d="M62.4,3c-.36-.19-.57-.27-.72-.34a.89.89,0,0,1-.32-.19.87.87,0,0,1-.12-.35,5.75,5.75,0,0,0-.19-.77l0-.1a1.85,1.85,0,0,1,1.07.59A1.8,1.8,0,0,1,62.5,3Z"/><path class="cls-4" d="M59.78,1.57a.52.52,0,0,0-.5-.52L21.59.11C20.16,0,18.67,0,17.12,0,7.69,0,.05,1.43.05,3.2S7.69,6.4,17.12,6.4c1.55,0,3,0,4.47-.11l37.69-.94a.52.52,0,0,0,.5-.52Z"/><path class="cls-5" d="M59.28,4.28l-37.69.94c-1.43.07-2.92.11-4.47.11C8.66,5.33,1.65,4.18.29,2.67a.82.82,0,0,0-.24.53C.05,5,7.69,6.4,17.12,6.4c1.55,0,3,0,4.47-.11l37.69-.94a.52.52,0,0,0,.5-.52V3.76A.52.52,0,0,1,59.28,4.28Z"/><path class="cls-6" d="M59.28,1.05,21.59.11C20.16,0,18.67,0,17.12,0,9.43,0,2.94,1,.8,2.26a1.11,1.11,0,0,1,.85.94,1.11,1.11,0,0,1-.85.94C2.94,5.45,9.43,6.4,17.12,6.4c1.55,0,3,0,4.47-.11l37.69-.94a.52.52,0,0,0,.5-.52V1.57A.52.52,0,0,0,59.28,1.05Z"/><path class="cls-2" d="M4.85,3.27c0-.73-.58-1.39-1.5-1.89l-.09,0C1.25,1.86.05,2.5.05,3.2S1.32,4.57,3.44,5.11l.09-.05A2.23,2.23,0,0,0,4.85,3.27Z"/><path class="cls-3" d="M3.27,1.39a3,3,0,0,1-.72.9,3.6,3.6,0,0,1-.77.48A3.34,3.34,0,0,1,1,3C.73,3.06.48,3,.1,3.2H0a1.13,1.13,0,0,1,.52-.84,4.94,4.94,0,0,1,.86-.5,11.89,11.89,0,0,1,1.87-.57Z"/><circle class="cls-2" cx="14.98" cy="3.2" r="1.6"/><path class="cls-3" d="M13.63,4.15a1.7,1.7,0,0,1,.07-2.06,1.68,1.68,0,0,1,2-.37l-.05.09a2.47,2.47,0,0,0-.86.52,3.75,3.75,0,0,0-.36.41,4.54,4.54,0,0,0-.35.42,2.36,2.36,0,0,0-.39.93Z"/><rect class="cls-7" x="18.72" width="4.8" height="6.4"/></g></g></g></svg>