<svg width="344" height="300" viewBox="0 0 344 300" fill="none" xmlns="http://www.w3.org/2000/svg">
<path d="M317.499 63.7198H25.8129V220.953H317.499V63.7198Z" fill="#2F9CA0"/>
<path d="M297.709 107.635H45.7748V189.954H297.709V107.635Z" fill="#3AB8BC"/>
<path d="M299.602 127.095H43.7098V152.583H299.602V127.095Z" fill="#2F9CA0"/>
<path d="M317.671 177.899H25.6407V192.193H317.671V177.899Z" fill="#1F7C7F"/>
<path d="M318.821 221.22L318.821 46.7648L306.087 46.7648L306.086 221.22L318.821 221.22Z" fill="#1F7C7F"/>
<path d="M36.0364 221.094L36.0367 46.6397L23.3023 46.6397L23.302 221.094L36.0364 221.094Z" fill="#1F7C7F"/>
<path d="M317.671 42.7097H25.6407L25.1245 80.7694H317.155L317.671 42.7097Z" fill="#1F7C7F"/>
<path d="M322.317 174.799H21.6827V181.343H322.317V174.799Z" fill="#FFB24D"/>
<path d="M322.317 126.579H21.6827V133.123H322.317V126.579Z" fill="#FFB24D"/>
<path d="M27.0176 48.0483H18.4133V289.839H27.0176V48.0483Z" fill="#FCCF5E"/>
<path d="M323.35 48.0483H314.745V289.839H323.35V48.0483Z" fill="#FCCF5E"/>
<path d="M27.0176 34.7875H18.4133V117.279H27.0176V34.7875Z" fill="#FFB24D"/>
<path d="M323.35 34.7875H314.745V117.279H323.35V34.7875Z" fill="#FFB24D"/>
<path d="M27.0176 191.16H18.4133V222.158H27.0176V191.16Z" fill="#FFB24D"/>
<path d="M323.35 191.16H314.745V222.158H323.35V191.16Z" fill="#FFB24D"/>
<path d="M330.233 210.276H11.0135V293.284H330.233V210.276Z" fill="#3AB8BC"/>
<path d="M330.233 208.726H11.0135V219.747H330.233V208.726Z" fill="#3AB8BC"/>
<path d="M51.97 212.342H29.2546V289.839H51.97V212.342Z" fill="#FFF4D7"/>
<path d="M103.08 212.342H80.3642V289.839H103.08V212.342Z" fill="#FFF4D7"/>
<path d="M154.017 212.342H131.302V289.839H154.017V212.342Z" fill="#FFF4D7"/>
<path d="M205.127 212.342H182.411V289.839H205.127V212.342Z" fill="#FFF4D7"/>
<path d="M256.236 212.342H233.521V289.839H256.236V212.342Z" fill="#FFF4D7"/>
<path d="M307.174 212.342H284.458V289.839H307.174V212.342Z" fill="#FFF4D7"/>
<path d="M326.619 286.395H12.046C7.74381 286.395 4.12994 290.012 4.12994 294.317V300H334.535V294.317C334.535 290.012 330.921 286.395 326.619 286.395Z" fill="#FCCF5E"/>
<path d="M322.317 171.871H21.6827V176.349H322.317V171.871Z" fill="#FCCF5E"/>
<path d="M322.317 123.823H21.6827V128.301H322.317V123.823Z" fill="#FCCF5E"/>
<path d="M330.233 207.348H11.0135V214.409H330.233V207.348Z" fill="#FCCF5E"/>
<path d="M335.912 32.3766H8.77637L8.26013 62.5144C8.26013 66.8198 11.7018 70.4364 16.176 70.4364H327.652C331.954 70.4364 335.396 66.9921 335.568 62.6867L335.912 32.3766Z" fill="#FF933B"/>
<path d="M344 0H0V63.7199H344V0Z" fill="#FCCF5E"/>
<path d="M284.974 11.883L291.342 25.1435L305.969 27.2101L295.472 37.3709L297.881 52.0093L284.974 45.1206L271.896 52.0093L274.305 37.3709L263.808 27.2101L278.435 25.1435L284.974 11.883Z" fill="#FFF4D7"/>
<path d="M228.53 11.883L234.897 25.1435L249.525 27.2101L239.027 37.3709L241.437 52.0093L228.53 45.1206L215.452 52.0093L217.861 37.3709L207.364 27.2101L221.991 25.1435L228.53 11.883Z" fill="#FFF4D7"/>
<path d="M172.086 11.883L178.453 25.1435L193.081 27.2101L182.583 37.3709L184.992 52.0093L172.086 45.1206L159.007 52.0093L161.589 37.3709L150.919 27.2101L165.547 25.1435L172.086 11.883Z" fill="#FFF4D7"/>
<path d="M115.642 11.883L122.009 25.1435L136.636 27.2101L126.139 37.3709L128.548 52.0093L115.642 45.1206L102.563 52.0093L105.144 37.3709L94.4751 27.2101L109.102 25.1435L115.642 11.883Z" fill="#FFF4D7"/>
<path d="M59.1975 11.883L65.5647 25.1435L80.192 27.2101L69.6948 37.3709L72.104 52.0092L59.1975 45.1206L46.119 52.0092L48.7003 37.3709L38.2031 27.2101L52.6583 25.1435L59.1975 11.883Z" fill="#FFF4D7"/>
<ellipse cx="59.4684" cy="99.6" rx="17.5" ry="20" fill="#00EAD9"/>
<ellipse cx="59.4684" cy="99.6" rx="17.5" ry="20" fill="url(#paint0_linear_1_410)" fill-opacity="0.2"/>
<ellipse cx="59.4684" cy="99.6" rx="17.5" ry="20" fill="url(#paint1_radial_1_410)" fill-opacity="0.3"/>
<g filter="url(#filter0_f_1_410)">
<ellipse cx="66.6251" cy="88.1001" rx="5.28143" ry="2.1606" transform="rotate(38.8636 66.6251 88.1001)" fill="#FFFDF5"/>
</g>
<ellipse cx="104.468" cy="99.6" rx="17.5" ry="20" fill="#00EAD9"/>
<ellipse cx="104.468" cy="99.6" rx="17.5" ry="20" fill="url(#paint2_linear_1_410)" fill-opacity="0.2"/>
<ellipse cx="104.468" cy="99.6" rx="17.5" ry="20" fill="url(#paint3_radial_1_410)" fill-opacity="0.3"/>
<g filter="url(#filter1_f_1_410)">
<ellipse cx="111.625" cy="88.1001" rx="5.28143" ry="2.1606" transform="rotate(38.8636 111.625 88.1001)" fill="#FFFDF5"/>
</g>
<ellipse cx="149.468" cy="99.6" rx="17.5" ry="20" fill="#FFF853"/>
<ellipse cx="149.468" cy="99.6" rx="17.5" ry="20" fill="url(#paint4_linear_1_410)" fill-opacity="0.2"/>
<ellipse cx="149.468" cy="99.6" rx="17.5" ry="20" fill="url(#paint5_radial_1_410)" fill-opacity="0.3"/>
<g filter="url(#filter2_f_1_410)">
<ellipse cx="156.625" cy="88.1001" rx="5.28143" ry="2.1606" transform="rotate(38.8636 156.625 88.1001)" fill="#FFFDF5"/>
</g>
<ellipse cx="194.468" cy="99.6" rx="17.5" ry="20" fill="#00EAD9"/>
<ellipse cx="194.468" cy="99.6" rx="17.5" ry="20" fill="url(#paint6_linear_1_410)" fill-opacity="0.2"/>
<ellipse cx="194.468" cy="99.6" rx="17.5" ry="20" fill="url(#paint7_radial_1_410)" fill-opacity="0.3"/>
<g filter="url(#filter3_f_1_410)">
<ellipse cx="201.625" cy="88.1001" rx="5.28143" ry="2.1606" transform="rotate(38.8636 201.625 88.1001)" fill="#FFFDF5"/>
</g>
<ellipse cx="239.468" cy="99.6" rx="17.5" ry="20" fill="#00EAD9"/>
<ellipse cx="239.468" cy="99.6" rx="17.5" ry="20" fill="url(#paint8_linear_1_410)" fill-opacity="0.2"/>
<ellipse cx="239.468" cy="99.6" rx="17.5" ry="20" fill="url(#paint9_radial_1_410)" fill-opacity="0.3"/>
<g filter="url(#filter4_f_1_410)">
<ellipse cx="246.625" cy="88.1001" rx="5.28143" ry="2.1606" transform="rotate(38.8636 246.625 88.1001)" fill="#FFFDF5"/>
</g>
<ellipse cx="284.468" cy="99.6" rx="17.5" ry="20" fill="#FFF853"/>
<ellipse cx="284.468" cy="99.6" rx="17.5" ry="20" fill="url(#paint10_linear_1_410)" fill-opacity="0.2"/>
<ellipse cx="284.468" cy="99.6" rx="17.5" ry="20" fill="url(#paint11_radial_1_410)" fill-opacity="0.3"/>
<g filter="url(#filter5_f_1_410)">
<ellipse cx="291.625" cy="88.1001" rx="5.28143" ry="2.1606" transform="rotate(38.8636 291.625 88.1001)" fill="#FFFDF5"/>
</g>
<ellipse cx="57.4915" cy="153.6" rx="13.125" ry="15" fill="#00EAD9"/>
<ellipse cx="57.4915" cy="153.6" rx="13.125" ry="15" fill="url(#paint12_linear_1_410)" fill-opacity="0.2"/>
<ellipse cx="57.4915" cy="153.6" rx="13.125" ry="15" fill="url(#paint13_radial_1_410)" fill-opacity="0.3"/>
<g filter="url(#filter6_f_1_410)">
<ellipse cx="62.859" cy="144.975" rx="3.96107" ry="1.62045" transform="rotate(38.8636 62.859 144.975)" fill="#FFFDF5"/>
</g>
<ellipse cx="94.7415" cy="153.6" rx="13.125" ry="15" fill="#FFF853"/>
<ellipse cx="94.7415" cy="153.6" rx="13.125" ry="15" fill="url(#paint14_linear_1_410)" fill-opacity="0.2"/>
<ellipse cx="94.7415" cy="153.6" rx="13.125" ry="15" fill="url(#paint15_radial_1_410)" fill-opacity="0.3"/>
<g filter="url(#filter7_f_1_410)">
<ellipse cx="100.109" cy="144.975" rx="3.96107" ry="1.62045" transform="rotate(38.8636 100.109 144.975)" fill="#FFFDF5"/>
</g>
<ellipse cx="131.992" cy="153.6" rx="13.125" ry="15" fill="#00EAD9"/>
<ellipse cx="131.992" cy="153.6" rx="13.125" ry="15" fill="url(#paint16_linear_1_410)" fill-opacity="0.2"/>
<ellipse cx="131.992" cy="153.6" rx="13.125" ry="15" fill="url(#paint17_radial_1_410)" fill-opacity="0.3"/>
<g filter="url(#filter8_f_1_410)">
<ellipse cx="137.359" cy="144.975" rx="3.96107" ry="1.62045" transform="rotate(38.8636 137.359 144.975)" fill="#FFFDF5"/>
</g>
<ellipse cx="169.242" cy="153.6" rx="13.125" ry="15" fill="#00EAD9"/>
<ellipse cx="169.242" cy="153.6" rx="13.125" ry="15" fill="url(#paint18_linear_1_410)" fill-opacity="0.2"/>
<ellipse cx="169.242" cy="153.6" rx="13.125" ry="15" fill="url(#paint19_radial_1_410)" fill-opacity="0.3"/>
<g filter="url(#filter9_f_1_410)">
<ellipse cx="174.609" cy="144.975" rx="3.96107" ry="1.62045" transform="rotate(38.8636 174.609 144.975)" fill="#FFFDF5"/>
</g>
<ellipse cx="206.492" cy="153.6" rx="13.125" ry="15" fill="#00EAD9"/>
<ellipse cx="206.492" cy="153.6" rx="13.125" ry="15" fill="url(#paint20_linear_1_410)" fill-opacity="0.2"/>
<ellipse cx="206.492" cy="153.6" rx="13.125" ry="15" fill="url(#paint21_radial_1_410)" fill-opacity="0.3"/>
<g filter="url(#filter10_f_1_410)">
<ellipse cx="211.859" cy="144.975" rx="3.96107" ry="1.62045" transform="rotate(38.8636 211.859 144.975)" fill="#FFFDF5"/>
</g>
<ellipse cx="243.742" cy="153.6" rx="13.125" ry="15" fill="#FFF853"/>
<ellipse cx="243.742" cy="153.6" rx="13.125" ry="15" fill="url(#paint22_linear_1_410)" fill-opacity="0.2"/>
<ellipse cx="243.742" cy="153.6" rx="13.125" ry="15" fill="url(#paint23_radial_1_410)" fill-opacity="0.3"/>
<g filter="url(#filter11_f_1_410)">
<ellipse cx="249.109" cy="144.975" rx="3.96107" ry="1.62045" transform="rotate(38.8636 249.109 144.975)" fill="#FFFDF5"/>
</g>
<ellipse cx="280.992" cy="153.6" rx="13.125" ry="15" fill="#FFF853"/>
<ellipse cx="280.992" cy="153.6" rx="13.125" ry="15" fill="url(#paint24_linear_1_410)" fill-opacity="0.2"/>
<ellipse cx="280.992" cy="153.6" rx="13.125" ry="15" fill="url(#paint25_radial_1_410)" fill-opacity="0.3"/>
<g filter="url(#filter12_f_1_410)">
<ellipse cx="286.359" cy="144.975" rx="3.96107" ry="1.62045" transform="rotate(38.8636 286.359 144.975)" fill="#FFFDF5"/>
</g>
<path fill-rule="evenodd" clip-rule="evenodd" d="M46.2487 202.6C47.2941 204.53 49.4881 206.202 52.2834 206.952C56.7609 208.154 61.0858 206.533 61.9433 203.332C62.8007 200.131 59.8661 196.563 55.3885 195.362C52.5933 194.612 49.8575 194.961 47.9877 196.109L50.3613 200.225L46.2487 202.6Z" fill="#BC2E24"/>
<path d="M52.9092 200.908L73.2195 203.873L71.9775 208.509L52.9092 200.908Z" fill="#EA2626"/>
<rect width="4.8" height="1.2" transform="matrix(0.258777 -0.965937 0.965839 0.259141 71.9774 208.509)" fill="#FFFDF5"/>
<rect width="4.8" height="1.2" transform="matrix(0.258777 -0.965937 0.965839 0.259141 74.2938 209.131)" fill="#FFFDF5"/>
<path d="M75.4521 209.441L76.6941 204.805L81.6038 205.282C82.8339 205.402 83.6626 206.597 83.3428 207.791L82.7017 210.184C82.3819 211.378 81.0666 211.999 79.9418 211.486L75.4521 209.441Z" fill="url(#paint26_linear_1_410)"/>
<rect width="4.8" height="1.2" transform="matrix(0.258777 -0.965937 0.965839 0.259141 73.1357 208.82)" fill="#EA2626"/>
<path d="M82.7118 210.147L83.3328 207.829L93.446 211.784L82.7118 210.147Z" fill="#333333"/>
<path fill-rule="evenodd" clip-rule="evenodd" d="M52.5634 191.856C53.1444 193.973 54.9024 196.099 57.455 197.464C61.5439 199.65 66.1233 199.052 67.6835 196.13C69.2436 193.207 67.1937 189.065 63.1048 186.88C60.5523 185.515 57.8085 185.235 55.7275 185.928L57.107 190.475L52.5634 191.856Z" fill="#BC2E24"/>
<path d="M59.4336 191.719L78.5436 199.214L76.2837 203.448L59.4336 191.719Z" fill="#EA2626"/>
<rect width="4.8" height="1.2" transform="matrix(0.470899 -0.882187 0.881892 0.471452 76.2836 203.448)" fill="#FFFDF5"/>
<rect width="4.8" height="1.2" transform="matrix(0.470899 -0.882187 0.881892 0.471452 78.3989 204.579)" fill="#FFFDF5"/>
<path d="M79.4566 205.144L81.7165 200.911L86.3907 202.489C87.5615 202.885 88.0976 204.237 87.5156 205.327L86.3493 207.512C85.7673 208.603 84.3459 208.909 83.3665 208.155L79.4566 205.144Z" fill="url(#paint27_linear_1_410)"/>
<rect width="4.8" height="1.2" transform="matrix(0.470899 -0.882187 0.881892 0.471452 77.3412 204.014)" fill="#EA2626"/>
<path d="M86.3674 207.478L87.4974 205.361L96.4513 211.509L86.3674 207.478Z" fill="#333333"/>
<path fill-rule="evenodd" clip-rule="evenodd" d="M49.6914 211.13C51.0329 212.867 53.4668 214.165 56.3461 214.456C60.9583 214.922 64.967 212.628 65.2998 209.331C65.6326 206.034 62.1634 202.983 57.5512 202.517C54.6718 202.226 52.0277 203.011 50.3663 204.444L53.3694 208.125L49.6914 211.13Z" fill="#BC2E24"/>
<path d="M55.994 208.39L76.5165 208.052L76.0344 212.828L55.994 208.39Z" fill="#EA2626"/>
<rect width="4.8" height="1.2" transform="matrix(0.100427 -0.994944 0.994929 0.100577 76.0344 212.828)" fill="#FFFDF5"/>
<rect width="4.8" height="1.2" transform="matrix(0.100427 -0.994944 0.994929 0.100577 78.4204 213.069)" fill="#FFFDF5"/>
<path d="M79.6134 213.19L80.0954 208.414L85.0178 208.096C86.2512 208.017 87.2611 209.064 87.1369 210.293L86.8881 212.758C86.764 213.988 85.5653 214.812 84.3728 214.487L79.6134 213.19Z" fill="url(#paint28_linear_1_410)"/>
<rect width="4.8" height="1.2" transform="matrix(0.100427 -0.994944 0.994929 0.100577 77.2274 212.949)" fill="#EA2626"/>
<path d="M86.8921 212.72L87.1331 210.332L97.7498 212.611L86.8921 212.72Z" fill="#333333"/>
<defs>
<filter id="filter0_f_1_410" x="59.2939" y="81.3828" width="14.6624" height="13.4346" filterUnits="userSpaceOnUse" color-interpolation-filters="sRGB">
<feFlood flood-opacity="0" result="BackgroundImageFix"/>
<feBlend mode="normal" in="SourceGraphic" in2="BackgroundImageFix" result="shape"/>
<feGaussianBlur stdDeviation="1.5" result="effect1_foregroundBlur_1_410"/>
</filter>
<filter id="filter1_f_1_410" x="104.294" y="81.3828" width="14.6624" height="13.4346" filterUnits="userSpaceOnUse" color-interpolation-filters="sRGB">
<feFlood flood-opacity="0" result="BackgroundImageFix"/>
<feBlend mode="normal" in="SourceGraphic" in2="BackgroundImageFix" result="shape"/>
<feGaussianBlur stdDeviation="1.5" result="effect1_foregroundBlur_1_410"/>
</filter>
<filter id="filter2_f_1_410" x="149.294" y="81.3828" width="14.6624" height="13.4346" filterUnits="userSpaceOnUse" color-interpolation-filters="sRGB">
<feFlood flood-opacity="0" result="BackgroundImageFix"/>
<feBlend mode="normal" in="SourceGraphic" in2="BackgroundImageFix" result="shape"/>
<feGaussianBlur stdDeviation="1.5" result="effect1_foregroundBlur_1_410"/>
</filter>
<filter id="filter3_f_1_410" x="194.294" y="81.3828" width="14.6624" height="13.4346" filterUnits="userSpaceOnUse" color-interpolation-filters="sRGB">
<feFlood flood-opacity="0" result="BackgroundImageFix"/>
<feBlend mode="normal" in="SourceGraphic" in2="BackgroundImageFix" result="shape"/>
<feGaussianBlur stdDeviation="1.5" result="effect1_foregroundBlur_1_410"/>
</filter>
<filter id="filter4_f_1_410" x="239.294" y="81.3828" width="14.6624" height="13.4346" filterUnits="userSpaceOnUse" color-interpolation-filters="sRGB">
<feFlood flood-opacity="0" result="BackgroundImageFix"/>
<feBlend mode="normal" in="SourceGraphic" in2="BackgroundImageFix" result="shape"/>
<feGaussianBlur stdDeviation="1.5" result="effect1_foregroundBlur_1_410"/>
</filter>
<filter id="filter5_f_1_410" x="284.294" y="81.3828" width="14.6624" height="13.4346" filterUnits="userSpaceOnUse" color-interpolation-filters="sRGB">
<feFlood flood-opacity="0" result="BackgroundImageFix"/>
<feBlend mode="normal" in="SourceGraphic" in2="BackgroundImageFix" result="shape"/>
<feGaussianBlur stdDeviation="1.5" result="effect1_foregroundBlur_1_410"/>
</filter>
<filter id="filter6_f_1_410" x="56.6106" y="139.187" width="12.4968" height="11.5759" filterUnits="userSpaceOnUse" color-interpolation-filters="sRGB">
<feFlood flood-opacity="0" result="BackgroundImageFix"/>
<feBlend mode="normal" in="SourceGraphic" in2="BackgroundImageFix" result="shape"/>
<feGaussianBlur stdDeviation="1.5" result="effect1_foregroundBlur_1_410"/>
</filter>
<filter id="filter7_f_1_410" x="93.8606" y="139.187" width="12.4968" height="11.5759" filterUnits="userSpaceOnUse" color-interpolation-filters="sRGB">
<feFlood flood-opacity="0" result="BackgroundImageFix"/>
<feBlend mode="normal" in="SourceGraphic" in2="BackgroundImageFix" result="shape"/>
<feGaussianBlur stdDeviation="1.5" result="effect1_foregroundBlur_1_410"/>
</filter>
<filter id="filter8_f_1_410" x="131.111" y="139.187" width="12.4968" height="11.5759" filterUnits="userSpaceOnUse" color-interpolation-filters="sRGB">
<feFlood flood-opacity="0" result="BackgroundImageFix"/>
<feBlend mode="normal" in="SourceGraphic" in2="BackgroundImageFix" result="shape"/>
<feGaussianBlur stdDeviation="1.5" result="effect1_foregroundBlur_1_410"/>
</filter>
<filter id="filter9_f_1_410" x="168.361" y="139.187" width="12.4968" height="11.5759" filterUnits="userSpaceOnUse" color-interpolation-filters="sRGB">
<feFlood flood-opacity="0" result="BackgroundImageFix"/>
<feBlend mode="normal" in="SourceGraphic" in2="BackgroundImageFix" result="shape"/>
<feGaussianBlur stdDeviation="1.5" result="effect1_foregroundBlur_1_410"/>
</filter>
<filter id="filter10_f_1_410" x="205.611" y="139.187" width="12.4968" height="11.5759" filterUnits="userSpaceOnUse" color-interpolation-filters="sRGB">
<feFlood flood-opacity="0" result="BackgroundImageFix"/>
<feBlend mode="normal" in="SourceGraphic" in2="BackgroundImageFix" result="shape"/>
<feGaussianBlur stdDeviation="1.5" result="effect1_foregroundBlur_1_410"/>
</filter>
<filter id="filter11_f_1_410" x="242.861" y="139.187" width="12.4968" height="11.5759" filterUnits="userSpaceOnUse" color-interpolation-filters="sRGB">
<feFlood flood-opacity="0" result="BackgroundImageFix"/>
<feBlend mode="normal" in="SourceGraphic" in2="BackgroundImageFix" result="shape"/>
<feGaussianBlur stdDeviation="1.5" result="effect1_foregroundBlur_1_410"/>
</filter>
<filter id="filter12_f_1_410" x="280.111" y="139.187" width="12.4968" height="11.5759" filterUnits="userSpaceOnUse" color-interpolation-filters="sRGB">
<feFlood flood-opacity="0" result="BackgroundImageFix"/>
<feBlend mode="normal" in="SourceGraphic" in2="BackgroundImageFix" result="shape"/>
<feGaussianBlur stdDeviation="1.5" result="effect1_foregroundBlur_1_410"/>
</filter>
<linearGradient id="paint0_linear_1_410" x1="69.9684" y1="86.1" x2="54.9684" y2="118.1" gradientUnits="userSpaceOnUse">
<stop stop-color="#FFFDF5"/>
<stop offset="1" stop-color="#006666"/>
</linearGradient>
<radialGradient id="paint1_radial_1_410" cx="0" cy="0" r="1" gradientUnits="userSpaceOnUse" gradientTransform="translate(63.4684 91.6) rotate(98.1301) scale(28.2843 24.7487)">
<stop stop-opacity="0"/>
<stop offset="1"/>
</radialGradient>
<linearGradient id="paint2_linear_1_410" x1="114.968" y1="86.1" x2="99.9684" y2="118.1" gradientUnits="userSpaceOnUse">
<stop stop-color="#FFFDF5"/>
<stop offset="1" stop-color="#006666"/>
</linearGradient>
<radialGradient id="paint3_radial_1_410" cx="0" cy="0" r="1" gradientUnits="userSpaceOnUse" gradientTransform="translate(108.468 91.6) rotate(98.1301) scale(28.2843 24.7487)">
<stop stop-opacity="0"/>
<stop offset="1"/>
</radialGradient>
<linearGradient id="paint4_linear_1_410" x1="159.968" y1="86.1" x2="144.968" y2="118.1" gradientUnits="userSpaceOnUse">
<stop stop-color="#FFFDF5"/>
<stop offset="1" stop-color="#F9C031"/>
</linearGradient>
<radialGradient id="paint5_radial_1_410" cx="0" cy="0" r="1" gradientUnits="userSpaceOnUse" gradientTransform="translate(153.468 91.6) rotate(98.1301) scale(28.2843 24.7487)">
<stop stop-color="#FFFDF5"/>
<stop offset="1" stop-color="#FFC32B"/>
</radialGradient>
<linearGradient id="paint6_linear_1_410" x1="204.968" y1="86.1" x2="189.968" y2="118.1" gradientUnits="userSpaceOnUse">
<stop stop-color="#FFFDF5"/>
<stop offset="1" stop-color="#006666"/>
</linearGradient>
<radialGradient id="paint7_radial_1_410" cx="0" cy="0" r="1" gradientUnits="userSpaceOnUse" gradientTransform="translate(198.468 91.6) rotate(98.1301) scale(28.2843 24.7487)">
<stop stop-opacity="0"/>
<stop offset="1"/>
</radialGradient>
<linearGradient id="paint8_linear_1_410" x1="249.968" y1="86.1" x2="234.968" y2="118.1" gradientUnits="userSpaceOnUse">
<stop stop-color="#FFFDF5"/>
<stop offset="1" stop-color="#006666"/>
</linearGradient>
<radialGradient id="paint9_radial_1_410" cx="0" cy="0" r="1" gradientUnits="userSpaceOnUse" gradientTransform="translate(243.468 91.6) rotate(98.1301) scale(28.2843 24.7487)">
<stop stop-opacity="0"/>
<stop offset="1"/>
</radialGradient>
<linearGradient id="paint10_linear_1_410" x1="294.968" y1="86.1" x2="279.968" y2="118.1" gradientUnits="userSpaceOnUse">
<stop stop-color="#FFFDF5"/>
<stop offset="1" stop-color="#F9C031"/>
</linearGradient>
<radialGradient id="paint11_radial_1_410" cx="0" cy="0" r="1" gradientUnits="userSpaceOnUse" gradientTransform="translate(288.468 91.6) rotate(98.1301) scale(28.2843 24.7487)">
<stop stop-color="#FFFDF5"/>
<stop offset="1" stop-color="#FFC32B"/>
</radialGradient>
<linearGradient id="paint12_linear_1_410" x1="65.3665" y1="143.475" x2="54.1165" y2="167.475" gradientUnits="userSpaceOnUse">
<stop stop-color="#FFFDF5"/>
<stop offset="1" stop-color="#006666"/>
</linearGradient>
<radialGradient id="paint13_radial_1_410" cx="0" cy="0" r="1" gradientUnits="userSpaceOnUse" gradientTransform="translate(60.4915 147.6) rotate(98.1301) scale(21.2132 18.5616)">
<stop stop-opacity="0"/>
<stop offset="1"/>
</radialGradient>
<linearGradient id="paint14_linear_1_410" x1="102.617" y1="143.475" x2="91.3665" y2="167.475" gradientUnits="userSpaceOnUse">
<stop stop-color="#FFFDF5"/>
<stop offset="1" stop-color="#F9C031"/>
</linearGradient>
<radialGradient id="paint15_radial_1_410" cx="0" cy="0" r="1" gradientUnits="userSpaceOnUse" gradientTransform="translate(97.7415 147.6) rotate(98.1301) scale(21.2132 18.5616)">
<stop stop-color="#FFFDF5"/>
<stop offset="1" stop-color="#FFC32B"/>
</radialGradient>
<linearGradient id="paint16_linear_1_410" x1="139.867" y1="143.475" x2="128.617" y2="167.475" gradientUnits="userSpaceOnUse">
<stop stop-color="#FFFDF5"/>
<stop offset="1" stop-color="#006666"/>
</linearGradient>
<radialGradient id="paint17_radial_1_410" cx="0" cy="0" r="1" gradientUnits="userSpaceOnUse" gradientTransform="translate(134.992 147.6) rotate(98.1301) scale(21.2132 18.5616)">
<stop stop-opacity="0"/>
<stop offset="1"/>
</radialGradient>
<linearGradient id="paint18_linear_1_410" x1="177.117" y1="143.475" x2="165.867" y2="167.475" gradientUnits="userSpaceOnUse">
<stop stop-color="#FFFDF5"/>
<stop offset="1" stop-color="#006666"/>
</linearGradient>
<radialGradient id="paint19_radial_1_410" cx="0" cy="0" r="1" gradientUnits="userSpaceOnUse" gradientTransform="translate(172.242 147.6) rotate(98.1301) scale(21.2132 18.5616)">
<stop stop-opacity="0"/>
<stop offset="1"/>
</radialGradient>
<linearGradient id="paint20_linear_1_410" x1="214.367" y1="143.475" x2="203.117" y2="167.475" gradientUnits="userSpaceOnUse">
<stop stop-color="#FFFDF5"/>
<stop offset="1" stop-color="#006666"/>
</linearGradient>
<radialGradient id="paint21_radial_1_410" cx="0" cy="0" r="1" gradientUnits="userSpaceOnUse" gradientTransform="translate(209.492 147.6) rotate(98.1301) scale(21.2132 18.5616)">
<stop stop-opacity="0"/>
<stop offset="1"/>
</radialGradient>
<linearGradient id="paint22_linear_1_410" x1="251.617" y1="143.475" x2="240.367" y2="167.475" gradientUnits="userSpaceOnUse">
<stop stop-color="#FFFDF5"/>
<stop offset="1" stop-color="#F9C031"/>
</linearGradient>
<radialGradient id="paint23_radial_1_410" cx="0" cy="0" r="1" gradientUnits="userSpaceOnUse" gradientTransform="translate(246.742 147.6) rotate(98.1301) scale(21.2132 18.5616)">
<stop stop-color="#FFFDF5"/>
<stop offset="1" stop-color="#FFC32B"/>
</radialGradient>
<linearGradient id="paint24_linear_1_410" x1="288.867" y1="143.475" x2="277.617" y2="167.475" gradientUnits="userSpaceOnUse">
<stop stop-color="#FFFDF5"/>
<stop offset="1" stop-color="#F9C031"/>
</linearGradient>
<radialGradient id="paint25_radial_1_410" cx="0" cy="0" r="1" gradientUnits="userSpaceOnUse" gradientTransform="translate(283.992 147.6) rotate(98.1301) scale(21.2132 18.5616)">
<stop stop-color="#FFFDF5"/>
<stop offset="1" stop-color="#FFC32B"/>
</radialGradient>
<linearGradient id="paint26_linear_1_410" x1="78.5447" y1="207.165" x2="82.4083" y2="211.288" gradientUnits="userSpaceOnUse">
<stop stop-color="#FCCF5E"/>
<stop offset="1" stop-color="#EAA726"/>
</linearGradient>
<linearGradient id="paint27_linear_1_410" x1="82.9843" y1="203.629" x2="85.8129" y2="208.521" gradientUnits="userSpaceOnUse">
<stop stop-color="#FCCF5E"/>
<stop offset="1" stop-color="#EAA726"/>
</linearGradient>
<linearGradient id="paint28_linear_1_410" x1="82.3007" y1="210.446" x2="86.7756" y2="213.895" gradientUnits="userSpaceOnUse">
<stop stop-color="#FCCF5E"/>
<stop offset="1" stop-color="#EAA726"/>
</linearGradient>
</defs>
</svg>
